<svg id="Layer_1" enable-background="new 0 0 510 510" height="512" viewBox="0 0 510 510" width="512" xmlns="http://www.w3.org/2000/svg"><g><path d="m240.5 426.5-90.5 23.5v60h172.5l20.5-28.5-20.5-31.5z" fill="#fdbf00"/><path d="m435 45-112.5 405v60h172.5c0-13.116 0-451.884 0-465-7.259 0-52.693 0-60 0z" fill="#ff9100"/><path d="m270 450h-165v-450h165l16 230.667z" fill="#ecf9fb"/><path d="m435 450h-165v-225l10-15-10-15v-30l10.405-15-10.405-15v-30l14.333-15-14.333-15v-75h165z" fill="#d8f1fb"/><g><g><path d="m270 75h105v30h-105z" fill="#bceaf9"/></g></g><g><g><path d="m270 135h105v30h-105z" fill="#bceaf9"/></g></g><g><g><path d="m270 195h105v30h-105z" fill="#bceaf9"/></g></g><g><g><path d="m270 285h-45v-30h45l16 15z" fill="#d8f1fb"/></g></g><g><g><path d="m270 345h-105v-30h105l16 15z" fill="#d8f1fb"/></g></g><g><g><path d="m270 255h105v30h-105z" fill="#bceaf9"/></g></g><g><g><path d="m270 315h105v30h-105z" fill="#bceaf9"/></g></g><path d="m15 165c0 49.706 40.294 90 90 90l11-88.667-11-91.333c-49.706 0-90 40.294-90 90z" fill="#ff6326"/><path d="m105 75v180c49.706 0 90-40.294 90-90s-40.294-90-90-90z" fill="#e20059"/><g><path d="m94.394 175.607c-5.849-5.849-5.849-15.365-.001-21.213 2.924-2.924 6.766-4.387 10.607-4.387l8.666-15.007-8.666-14.979c-11.523 0-23.047 4.386-31.82 13.159-17.544 17.545-17.544 46.094 0 63.64 8.773 8.773 20.296 13.159 31.82 13.159l5.333-14.979-5.333-15.006c-3.841-.001-7.682-1.463-10.606-4.387z" fill="#ecf9fb"/><g fill="#d8f1fb"><path d="m105 179.994v29.985c11.523 0 23.047-4.386 31.82-13.159l-21.213-21.214c-2.924 2.926-6.766 4.388-10.607 4.388z"/><path d="m115.607 154.394 21.213-21.214c-8.773-8.772-20.296-13.159-31.82-13.159v29.986c3.841 0 7.683 1.462 10.607 4.387z"/></g></g></g></svg>